<svg height="512pt" viewBox="-82 0 512 512" width="512pt" xmlns="http://www.w3.org/2000/svg"><g fill-rule="evenodd"><path d="m10 73.488281h79.851562v40.828125h-39.027343v346.859375h246.371093v-346.859375h-39.027343v-40.828125h79.851562v428.511719h-328.019531zm0 0" fill="#e4eaf8"/><path d="m50.824219 114.316406h39.027343v40.824219h168.316407v-40.824219h39.027343v346.859375h-246.371093zm0 0" fill="#ffdc91"/><path d="m89.851562 73.488281h32.253907v-11.585937c0-28.546875 23.355469-51.902344 51.90625-51.902344 28.546875 0 51.902343 23.355469 51.902343 51.902344v11.585937h32.253907v81.652344h-168.316407zm0 0" fill="#54a0ff"/><path d="m338.019531 63.488281h-102.105469v-1.585937c0-34.132813-27.769531-61.902344-61.902343-61.902344-34.136719 0-61.90625 27.769531-61.90625 61.902344v1.585937h-102.105469c-5.523438 0-10 4.476563-10 10v318.507813c0 5.523437 4.476562 10 10 10s10-4.476563 10-10v-308.507813h59.851562v20.828125h-29.023437c-5.523437 0-10 4.476563-10 10v346.855469c0 5.523437 4.476563 10 10 10h246.367187c5.519532 0 10-4.476563 10-10v-346.855469c0-5.523437-4.480468-10-10-10h-29.023437v-20.828125h59.847656v20.003907c0 5.519531 4.480469 10 10 10 5.523438 0 10-4.480469 10-10v-30.003907c0-5.519531-4.476562-10-10-10zm-215.914062 20c5.523437 0 10-4.476562 10-10v-11.585937c0-23.105469 18.796875-41.902344 41.90625-41.902344 23.105469 0 41.902343 18.796875 41.902343 41.902344v11.585937c0 5.523438 4.476563 10 10 10h22.253907v61.652344h-148.316407v-61.652344zm165.089843 40.828125v326.855469h-226.371093v-326.855469h19.023437v30.824219c0 5.523437 4.480469 10 10 10h168.320313c5.523437 0 10-4.476563 10-10v-30.824219zm0 0"/><path d="m338.019531 173.492188c-5.523437 0-10 4.476562-10 10v308.507812h-308.019531v-20.003906c0-5.519532-4.476562-10-10-10s-10 4.480468-10 10v30.003906c0 5.523438 4.476562 10 10 10h328.019531c5.523438 0 10-4.476562 10-10v-318.507812c0-5.523438-4.476562-10-10-10zm0 0"/><path d="m132.6875 283.335938c3.90625 3.902343 10.238281 3.90625 14.144531 0l27.179688-27.179688 27.175781 27.179688c1.953125 1.953124 4.511719 2.929687 7.070312 2.929687 2.5625 0 5.121094-.976563 7.070313-2.929687 3.90625-3.90625 3.90625-10.238282 0-14.144532l-27.175781-27.175781 27.175781-27.175781c3.90625-3.90625 3.90625-10.238282 0-14.144532-3.902344-3.902343-10.234375-3.90625-14.140625 0l-27.179688 27.175782-27.175781-27.175782c-3.90625-3.90625-10.238281-3.90625-14.144531 0s-3.90625 10.238282 0 14.144532l27.179688 27.175781-27.179688 27.175781c-3.90625 3.90625-3.90625 10.238282 0 14.144532zm0 0"/><path d="m210.121094 340.597656-50.507813 50.503906-21.71875-21.714843c-3.902343-3.90625-10.234375-3.90625-14.140625 0s-3.90625 10.234375 0 14.140625l28.789063 28.789062c1.953125 1.953125 4.511719 2.929688 7.070312 2.929688 2.5625 0 5.117188-.976563 7.070313-2.929688l57.578125-57.578125c3.902343-3.902343 3.902343-10.234375 0-14.140625-3.90625-3.90625-10.234375-3.90625-14.140625 0zm0 0"/><path d="m10 441.996094c5.507812 0 10-4.488282 10-10 0-5.507813-4.492188-10-10-10s-10 4.492187-10 10c0 5.511718 4.492188 10 10 10zm0 0"/><path d="m338.019531 133.492188c-5.507812 0-10 4.492187-10 10 0 5.507812 4.492188 10 10 10 5.507813 0 10-4.492188 10-10 0-5.507813-4.492187-10-10-10zm0 0"/></g></svg>