<?xml version="1.0"?>
<svg xmlns="http://www.w3.org/2000/svg" xmlns:xlink="http://www.w3.org/1999/xlink" xmlns:svgjs="http://svgjs.com/svgjs" version="1.1" width="512" height="512" x="0" y="0" viewBox="0 0 487.622 487.622" style="enable-background:new 0 0 512 512" xml:space="preserve" class=""><g>
<g xmlns="http://www.w3.org/2000/svg">
	<g>
		<circle style="" cx="243.811" cy="243.811" r="243.811" fill="#65b3ad" data-original="#65b3ad" class=""/>
		<path style="opacity:0.37;fill:#56A49E;enable-background:new    ;" d="M476.466,316.909L323.967,169.733l-67.121-30.225    l-31.259-29.287l-6.776,39.59l-60.338,29.387l160.338,164.613l-75,24.379l-84.079-25.73l142.006,138.219    C384.732,460.451,451.088,397.757,476.466,316.909z" fill=""/>
		<path style="" d="M243.819,377.401c31.867,0,61.826-12.409,84.359-34.941c22.531-22.533,34.942-52.496,34.942-84.359    c0-0.002,0,0.001,0-0.001c0-31.866-12.409-61.825-34.942-84.358c-16.023-16.023-36.13-27.103-58.147-32.041    c-11.949-2.682-24.171-3.5-36.249-2.484l-8.195-28.994l-33.557,34.488l-33.557,34.488l46.646,11.816l46.646,11.816l-9.879-34.947    c24.214-0.574,47.903,8.651,65.701,26.449c35.161,35.161,35.161,92.373,0,127.533c-35.161,35.161-92.372,35.161-127.532,0    c-26.47-26.467-33.865-65.72-18.847-99.996l-26.674-11.688c-9.529,21.748-12.341,45.643-8.129,69.096    c4.314,24.02,15.745,45.867,33.058,63.181C181.995,364.991,211.954,377.401,243.819,377.401z" fill="#ffffff" data-original="#ffffff" class=""/>
	</g>
</g>
<g xmlns="http://www.w3.org/2000/svg">
</g>
<g xmlns="http://www.w3.org/2000/svg">
</g>
<g xmlns="http://www.w3.org/2000/svg">
</g>
<g xmlns="http://www.w3.org/2000/svg">
</g>
<g xmlns="http://www.w3.org/2000/svg">
</g>
<g xmlns="http://www.w3.org/2000/svg">
</g>
<g xmlns="http://www.w3.org/2000/svg">
</g>
<g xmlns="http://www.w3.org/2000/svg">
</g>
<g xmlns="http://www.w3.org/2000/svg">
</g>
<g xmlns="http://www.w3.org/2000/svg">
</g>
<g xmlns="http://www.w3.org/2000/svg">
</g>
<g xmlns="http://www.w3.org/2000/svg">
</g>
<g xmlns="http://www.w3.org/2000/svg">
</g>
<g xmlns="http://www.w3.org/2000/svg">
</g>
<g xmlns="http://www.w3.org/2000/svg">
</g>
</g></svg>
